<?xml version="1.0" standalone="no"?>
<!DOCTYPE svg PUBLIC "-//W3C//DTD SVG 20010904//EN"
 "http://www.w3.org/TR/2001/REC-SVG-20010904/DTD/svg10.dtd">
<svg version="1.0" xmlns="http://www.w3.org/2000/svg"
 width="500.000000pt" height="500.000000pt" viewBox="0 0 500.000000 500.000000"
 preserveAspectRatio="xMidYMid meet">
<metadata>
Created by potrace 1.10, written by Peter Selinger 2001-2011
</metadata>
<g transform="translate(0.000000,500.000000) scale(0.050000,-0.050000)"
fill="#000000" stroke="none">
<path d="M6411 9274 c-27 -20 -41 -72 -55 -205 -34 -317 -217 -1838 -226
-1881 -8 -37 -20 -30 -115 61 -457 442 -1370 366 -1735 -144 -221 -309 -234
-862 -29 -1266 58 -116 48 -112 140 -49 241 163 621 141 804 -46 91 -93 203
-297 207 -374 0 -22 12 1 26 50 13 50 17 99 8 109 -24 29 -20 96 6 80 32 -20
-31 92 -90 161 -29 33 -52 67 -52 75 0 8 -12 15 -27 15 -15 0 -43 18 -63 40
-19 21 -43 35 -51 29 -9 -5 -25 5 -35 23 -13 24 -52 36 -136 40 -65 4 -136 11
-159 15 -37 8 -96 0 -249 -35 -138 -31 -157 -33 -169 -13 -7 11 -5 21 4 21 10
0 18 13 18 28 0 17 -12 24 -31 17 -18 -6 -25 -4 -17 5 8 9 4 29 -9 45 -24 28
-27 40 -48 145 -14 72 -21 498 -8 490 6 -4 13 8 14 26 2 31 17 100 27 124 2 6
3 17 1 25 -1 8 7 15 18 15 11 0 20 18 20 39 0 21 14 47 31 57 18 9 43 39 57
66 14 26 36 46 48 43 13 -2 33 14 45 37 12 22 34 37 49 31 15 -6 31 7 37 30 6
23 19 35 30 29 11 -7 26 -3 33 8 7 11 20 16 30 10 24 -15 82 11 69 32 -6 10 3
12 20 6 18 -7 31 -2 31 13 0 14 6 20 13 13 7 -7 31 -3 53 9 32 18 46 15 65
-12 23 -31 27 -31 52 3 36 48 128 63 110 18 -8 -23 0 -32 27 -32 28 0 35 9 26
33 -16 43 112 23 146 -23 27 -36 49 -19 35 27 -6 21 -1 18 15 -7 27 -44 58
-69 87 -70 10 0 1 13 -20 29 -31 24 -33 30 -8 30 17 1 40 -8 50 -18 11 -11 39
-23 62 -26 24 -4 57 -18 74 -33 17 -14 43 -28 57 -31 65 -13 132 -51 143 -81
7 -18 21 -27 32 -21 11 7 36 -4 57 -25 25 -25 49 -32 75 -22 22 8 50 16 64 17
30 1 125 -184 185 -365 54 -159 103 -200 165 -138 47 48 11 185 -127 473 -75
157 -78 211 -9 211 13 0 25 25 27 55 1 30 8 82 14 115 7 33 17 125 24 205 6
80 19 150 27 156 9 5 11 41 5 79 -7 44 -3 70 11 70 13 0 19 34 14 91 -7 73 0
100 33 133 41 41 41 43 5 69 -20 15 -26 27 -12 27 14 0 20 19 15 50 -5 27 -2
54 7 60 9 5 12 42 7 81 -5 40 1 83 15 100 14 17 19 35 13 42 -7 7 -4 29 7 50
11 20 13 37 4 37 -9 0 -18 18 -20 40 -1 23 5 36 15 30 10 -6 13 12 8 41 -5 28
-3 62 6 75 8 13 13 57 12 99 -2 41 6 75 17 75 11 0 15 8 9 17 -6 10 14 14 44
10 30 -5 86 -12 124 -16 142 -16 225 -32 263 -52 21 -12 47 -15 57 -9 11 7 20
4 20 -7 0 -11 16 -17 35 -14 19 2 80 -8 135 -24 55 -16 116 -30 135 -31 19 -2
35 -9 35 -17 0 -8 16 -14 35 -13 50 2 93 -11 110 -34 9 -12 15 -11 15 5 0 30
89 -4 151 -59 32 -27 47 -30 65 -12 27 27 131 -17 112 -47 -6 -9 -1 -17 11
-17 11 0 21 8 21 18 0 10 16 15 35 12 19 -4 35 -9 35 -11 0 -2 18 -7 40 -11
143 -26 170 -34 170 -50 0 -10 18 -18 40 -18 22 0 40 -9 40 -20 0 -11 7 -19
15 -17 38 8 80 -28 71 -61 -5 -20 3 -49 17 -64 15 -15 30 -50 34 -78 4 -27 14
-54 22 -60 8 -5 20 -35 25 -65 9 -48 6 -52 -21 -30 -17 14 -8 -6 21 -45 29
-38 53 -74 52 -80 0 -5 15 -46 34 -90 114 -268 114 -267 -75 -224 -80 17 -401
90 -715 160 -784 177 -714 168 -755 95 -19 -33 -44 -61 -55 -61 -32 -1 -114
-97 -101 -118 6 -11 1 -26 -12 -34 -15 -9 -18 -5 -7 12 11 17 8 21 -7 12 -28
-18 -31 -72 -3 -72 11 0 20 -13 20 -30 0 -16 -8 -30 -19 -30 -10 0 -15 -38
-12 -85 4 -47 -1 -90 -11 -96 -9 -6 -22 -78 -29 -160 -15 -172 -25 -249 -30
-249 -9 0 -22 -104 -20 -166 1 -40 -7 -61 -19 -54 -11 7 -20 3 -20 -8 0 -11 8
-25 18 -31 10 -6 9 -46 -3 -96 -11 -47 -22 -112 -26 -145 -13 -134 -32 -220
-50 -227 -11 -4 -10 -22 3 -47 16 -30 16 -37 0 -27 -14 9 -23 -10 -24 -53 -5
-151 -13 -229 -28 -276 -9 -27 -17 -77 -18 -110 -1 -36 -12 -58 -27 -55 -17 3
-21 -21 -13 -87 8 -72 5 -89 -16 -76 -21 13 -21 10 0 -16 18 -23 19 -36 4 -46
-12 -7 -17 -29 -11 -48 7 -20 -6 -55 -29 -82 -22 -25 -40 -56 -40 -68 0 -12
-10 -8 -21 8 -16 24 -20 19 -15 -22 6 -56 -37 -125 -67 -106 -10 6 -16 1 -12
-12 3 -12 -33 -43 -79 -68 -47 -26 -79 -52 -72 -59 13 -13 -23 -20 -69 -14
-14 1 -25 -6 -25 -16 0 -11 -26 -17 -59 -15 -32 2 -54 -3 -49 -12 6 -9 3 -17
-6 -18 -9 0 -33 -4 -54 -8 -83 -16 -266 -16 -292 0 -17 11 -21 8 -12 -7 9 -14
0 -23 -26 -23 -22 0 -45 -9 -52 -20 -26 -42 -46 -16 -88 115 -143 437 -338
655 -608 681 -267 26 -727 -236 -896 -510 -52 -83 -46 -88 -106 105 -66 214
-499 1484 -566 1659 -66 172 -79 190 -138 190 -89 0 -94 -61 -20 -253 38 -98
158 -442 268 -767 110 -324 247 -723 304 -886 l105 -296 -32 -104 c-71 -236
-62 -314 37 -314 62 0 83 33 96 153 52 462 697 983 1040 840 221 -92 402 -506
383 -873 -33 -646 -450 -1300 -899 -1409 -80 -19 -110 -47 -110 -102 0 -216
502 47 790 413 224 285 389 762 390 1125 0 104 4 116 35 102 75 -34 373 -33
505 1 364 94 679 422 709 740 12 121 28 231 118 800 39 242 75 481 82 530 26
203 135 970 138 973 2 2 62 -9 133 -25 304 -66 971 -218 1229 -280 307 -73
303 -73 370 55 l42 80 -150 465 c-179 551 -164 533 -463 611 -120 31 -388 103
-597 160 -626 172 -1164 275 -1220 235z"/>
<path d="M3696 8959 c-28 -16 -34 -46 -32 -145 6 -224 -177 -468 -500 -666
-178 -109 -190 -268 -19 -243 31 5 61 1 67 -7 5 -9 22 -11 39 -5 16 6 29 1 29
-11 0 -12 7 -21 15 -20 119 19 269 -209 303 -460 22 -169 33 -184 124 -189 85
-4 113 48 122 232 3 74 12 135 20 135 8 0 10 14 3 30 -6 17 -1 30 12 30 13 0
18 9 11 20 -7 11 -1 20 12 20 14 0 19 6 12 12 -7 7 -1 24 12 38 13 14 46 54
74 88 27 34 60 62 73 62 12 0 28 14 34 30 7 17 19 29 27 27 9 -2 49 12 90 30
41 18 89 33 106 33 207 0 187 169 -25 219 -182 43 -390 262 -390 411 0 28 -6
50 -14 50 -7 0 -14 32 -15 71 -1 38 -12 82 -24 96 -12 15 -16 33 -9 40 47 46
-92 110 -157 72z m71 -464 c-9 -14 -2 -17 20 -9 21 8 33 3 33 -17 0 -16 16
-46 35 -66 19 -20 49 -57 65 -83 17 -25 47 -61 68 -78 163 -139 165 -142 117
-155 -24 -6 -40 -20 -34 -29 10 -16 -17 -26 -55 -21 -8 2 -9 -12 -2 -30 10
-26 4 -31 -30 -22 -23 6 -41 5 -38 -2 11 -36 -161 -208 -191 -190 -19 11 -19
7 1 -18 22 -27 20 -35 -10 -53 -21 -12 -25 -21 -10 -21 36 -1 9 -41 -27 -41
-16 0 -29 13 -29 28 0 16 -8 32 -19 35 -10 4 -21 20 -25 36 -3 16 -26 48 -51
72 -24 24 -38 49 -31 56 7 7 -1 13 -17 13 -16 0 -47 14 -68 31 -22 18 -25 26
-9 19 17 -7 14 0 -7 17 -20 17 -48 26 -61 21 -14 -5 -40 8 -59 29 -33 36 -33
38 9 49 28 8 39 22 32 42 -8 20 -3 26 15 20 15 -6 46 17 70 51 24 33 57 61 74
61 16 0 24 9 18 19 -7 10 4 28 23 38 20 11 58 61 86 111 27 51 61 92 76 92 15
0 20 10 12 23 -9 15 -5 18 9 9 13 -8 18 -25 10 -37z"/>
<path d="M2780 7263 c-104 -42 -325 -129 -490 -193 -535 -207 -1311 -543
-1807 -782 l-307 -147 9 -96 c5 -52 65 -252 134 -445 180 -503 253 -737 560
-1790 260 -890 303 -1028 452 -1440 51 -143 103 -289 114 -325 12 -36 29 -65
38 -65 9 0 56 -40 104 -90 48 -49 97 -90 109 -90 11 0 24 -9 27 -20 7 -20 19
-24 206 -61 120 -24 325 -5 464 42 57 20 109 30 115 24 7 -6 12 -1 12 13 0 13
9 19 20 12 11 -7 26 2 32 19 7 17 23 31 36 31 13 0 55 33 93 73 l69 74 -67
-49 c-164 -118 -363 -198 -492 -198 -72 0 -272 69 -292 101 -6 10 -31 21 -56
25 -25 4 -61 20 -80 37 -19 16 -46 26 -59 22 -13 -5 -24 6 -24 24 0 18 -13 37
-30 44 -16 6 -30 22 -30 35 0 13 -18 39 -41 58 -22 19 -35 44 -29 55 7 10 3
19 -9 19 -11 0 -21 16 -22 35 0 19 -13 52 -29 73 -16 21 -23 47 -17 57 7 11 2
26 -10 33 -12 8 -26 45 -30 82 -4 38 -18 72 -30 76 -17 5 -17 18 0 51 12 23
15 36 7 28 -21 -19 -76 59 -60 85 7 11 2 20 -11 20 -13 0 -18 13 -13 28 6 15
6 34 -1 41 -7 6 -16 32 -19 57 -4 24 -16 47 -27 51 -10 3 -19 23 -19 44 0 21
-14 80 -32 131 -27 82 -36 111 -55 198 -2 11 -10 29 -17 40 -15 24 -46 174
-40 195 2 8 -6 15 -18 15 -12 0 -17 13 -11 29 6 17 2 35 -8 42 -11 6 -14 20
-8 30 6 11 1 19 -11 19 -14 0 -18 16 -9 43 9 28 6 38 -9 28 -30 -18 -28 35 3
66 20 20 17 22 -13 11 -32 -12 -37 -8 -27 29 6 23 2 49 -10 56 -13 8 -15 3 -5
-13 11 -18 8 -21 -8 -11 -17 11 -18 22 -2 41 16 19 15 28 -1 34 -13 4 -24 36
-26 70 -1 34 -11 57 -21 51 -10 -6 -13 3 -6 21 7 18 5 37 -5 43 -9 6 -22 51
-30 100 -7 50 -22 95 -32 102 -11 6 -19 38 -19 71 0 33 -14 87 -31 119 -16 32
-24 59 -17 59 7 0 2 13 -11 29 -14 16 -19 38 -12 49 6 10 2 25 -9 32 -11 7
-15 21 -9 31 6 11 3 19 -6 19 -10 0 -20 11 -21 25 -10 76 -19 109 -39 147 -13
22 -26 63 -31 90 -4 26 -18 73 -31 104 -13 31 -23 78 -23 104 0 26 -10 54 -21
61 -12 7 -17 26 -11 42 7 16 3 24 -6 18 -17 -10 -55 138 -45 175 2 10 -5 11
-17 4 -11 -7 -20 3 -20 22 0 19 -15 51 -33 71 -23 26 -26 37 -8 37 21 0 21 6
1 30 -14 17 -20 37 -13 44 7 7 -2 29 -20 49 -18 21 -26 37 -18 37 9 0 1 23
-18 51 -18 27 -28 58 -22 68 7 10 3 24 -8 31 -11 6 -17 32 -12 56 4 24 9 56
10 71 0 16 14 22 32 15 18 -7 26 -3 19 8 -12 20 275 167 325 167 14 0 25 9 25
20 0 11 6 14 12 7 7 -7 26 1 43 18 17 17 42 26 58 20 15 -6 27 -3 27 7 0 19
78 52 105 45 8 -2 15 4 15 14 0 17 95 52 125 45 8 -2 15 7 15 18 0 12 8 16 19
10 10 -6 24 -3 30 8 18 29 192 102 213 90 10 -6 18 -3 18 8 0 16 114 67 160
72 6 1 21 9 35 17 14 9 25 10 25 2 0 -8 18 2 40 22 22 20 40 30 40 22 0 -8 15
0 33 18 20 21 55 30 88 26 42 -7 52 -2 44 21 -7 18 -3 24 10 16 12 -7 25 -4
28 6 4 11 25 23 47 26 22 4 59 17 82 30 24 13 48 18 55 11 7 -7 13 -1 13 13 0
14 13 20 30 14 17 -7 30 -3 30 8 0 10 16 19 36 19 20 0 45 8 55 17 20 18 227
103 272 111 15 3 80 29 144 59 65 29 124 53 131 53 7 0 36 26 64 58 28 32 86
77 129 100 l78 42 -69 -1 c-39 0 -155 -34 -260 -76z"/>
<path d="M2529 6374 c-21 -15 -88 -47 -149 -72 -60 -25 -303 -127 -540 -227
-236 -99 -491 -205 -566 -235 -194 -77 -189 -68 -136 -295 89 -378 357 -1264
478 -1580 l41 -105 -72 -175 c-81 -198 -93 -298 -40 -332 59 -38 101 9 166
189 135 368 276 565 482 669 484 245 900 -146 941 -885 33 -590 -361 -1182
-870 -1306 -187 -46 -230 -160 -66 -176 280 -28 761 355 971 773 316 629 58
1615 -474 1813 -252 94 -683 -57 -859 -302 -79 -110 -73 -118 -182 232 -241
767 -382 1281 -359 1300 8 8 173 79 365 160 1067 445 1040 432 1040 499 0 75
-94 106 -171 55z"/>
<path d="M2781 6251 c-13 -15 -16 -30 -7 -34 13 -6 115 -270 134 -347 3 -11
15 -42 27 -70 52 -119 256 -681 417 -1150 50 -143 102 -282 116 -310 15 -27
33 -95 41 -150 60 -417 495 -1024 686 -956 14 5 25 -2 25 -16 0 -20 5 -21 24
-2 18 18 14 33 -19 63 -23 22 -58 67 -78 100 -20 34 -52 66 -73 73 -21 7 -32
23 -26 40 6 16 -2 28 -19 28 -16 0 -29 9 -29 20 0 11 -13 20 -30 20 -16 0 -30
14 -30 30 0 17 -10 30 -21 30 -12 0 -15 10 -7 23 8 13 5 18 -6 11 -45 -28
-250 391 -218 443 7 11 1 23 -13 28 -14 6 -24 40 -23 77 2 38 -12 85 -29 106
-27 31 -27 36 -3 22 24 -14 24 -9 -2 22 -18 21 -29 49 -24 63 5 14 1 25 -10
25 -11 0 -24 20 -30 45 -5 25 -21 77 -35 115 -41 115 -45 129 -43 144 2 7 -10
38 -25 68 -16 30 -24 63 -19 72 6 9 0 16 -12 16 -12 0 -20 11 -18 25 2 14 -11
58 -29 99 -18 41 -33 92 -33 114 0 22 -9 45 -20 52 -12 7 -15 21 -9 31 6 11 2
19 -9 19 -11 0 -16 14 -9 30 6 17 0 30 -14 30 -14 0 -20 6 -13 13 8 7 4 25 -9
40 -12 15 -15 27 -7 27 8 0 4 13 -9 29 -14 16 -19 39 -12 50 8 12 4 21 -7 21
-12 0 -27 25 -34 55 -8 30 -19 64 -25 75 -7 11 -13 25 -14 30 -2 6 -17 41 -34
80 -17 38 -27 77 -22 85 5 8 -5 30 -22 47 -19 19 -27 48 -20 70 6 21 4 38 -6
38 -18 0 -73 140 -63 160 24 47 -168 172 -201 131z"/>
<path d="M7561 6165 c-65 -53 -74 -721 -11 -779 43 -40 130 -56 130 -24 0 11
9 15 20 8 76 -47 92 746 16 799 -58 40 -101 39 -155 -4z"/>
<path d="M8140 5406 c-324 -8 -388 -40 -364 -182 27 -167 744 -101 744 68 0
46 -88 131 -128 124 -12 -3 -125 -7 -252 -10z"/>
<path d="M6987 5362 c-207 -17 -292 -117 -188 -221 36 -36 60 -38 325 -28 329
13 375 30 370 132 -7 130 -98 150 -507 117z"/>
<path d="M7519 5049 c-48 -58 -40 -767 9 -824 52 -60 120 -57 171 8 46 58 63
686 21 796 -23 61 -156 74 -201 20z"/>
<path d="M6493 4663 c-24 -27 -33 -75 -33 -186 0 -280 -279 -643 -644 -837
-241 -129 -242 -253 -3 -299 368 -69 521 -245 568 -650 36 -317 298 -349 299
-37 1 404 285 758 642 800 238 28 244 197 9 258 -359 94 -507 280 -603 758
-45 220 -140 299 -235 193z m139 -558 c-5 -5 8 -28 29 -51 22 -23 39 -56 39
-73 0 -17 25 -58 55 -91 30 -32 54 -64 54 -70 -1 -5 24 -34 55 -64 31 -29 56
-49 56 -44 0 5 19 -8 42 -30 25 -23 36 -49 27 -64 -10 -15 -7 -19 8 -10 14 9
23 1 23 -18 0 -19 9 -27 23 -18 13 8 18 5 11 -6 -7 -11 -38 -16 -69 -11 -54 9
-54 9 -15 -24 22 -19 28 -28 14 -20 -15 7 -39 -3 -55 -24 -15 -20 -28 -29 -28
-19 -1 10 -23 -6 -50 -35 -27 -29 -55 -53 -61 -53 -23 0 -68 -55 -56 -68 7 -6
2 -12 -11 -12 -13 0 -23 -17 -23 -39 0 -21 -18 -44 -41 -51 -23 -8 -38 -24
-33 -37 9 -24 -49 -111 -80 -119 -9 -2 -14 -11 -11 -20 3 -9 -13 -6 -35 6 -43
23 -57 51 -15 30 14 -7 8 1 -14 19 -21 17 -30 31 -20 32 11 0 2 13 -20 30 -21
16 -31 29 -23 29 9 0 -1 16 -22 35 -21 19 -26 27 -11 17 18 -12 23 -9 15 11
-6 16 -39 39 -72 52 -34 12 -66 41 -72 64 -6 23 -32 47 -58 53 -27 7 -48 20
-48 29 0 9 -24 19 -53 23 -103 12 -30 146 123 228 22 12 38 32 35 45 -3 12 5
23 18 23 12 0 48 27 80 60 32 33 52 60 45 60 -7 0 17 27 52 60 35 33 57 60 48
60 -8 0 2 13 23 29 22 17 31 30 21 30 -10 1 -2 18 17 40 19 21 48 33 64 27 16
-6 24 -15 19 -21z"/>
</g>
</svg>
